# xmcd
#
# Track frame offsets:
# 150
# 14513
# 47023
# 94706
# 98174
# 133576
# 150942
# 186348
# 210848
# 229099
# 256977
# 277589
#
# Disc length: 4168 seconds
#
#
# Revision: 2
# Processed by: cddbd v1.5.2PL0 Copyright (c) Steve Scherf et al.
# Submitted via: FreeRIP 2.951 
#
DISCID=8e10460c
DTITLE=Grateful Dead - 06.23.1974 -  Jai-Alai Fronton, Miami, FL
DYEAR=1974
DGENRE=Psychedelic Rock
TTITLE0=Introduction
TTITLE1=Ramble On Rose
TTITLE2=Black Throated Wind
TTITLE3=Tico Tico Tuning
TTITLE4=Mississippi Half-Step
TTITLE5=Beat It On Down the Line
TTITLE6=Row Jimmy
TTITLE7=Jack Straw
TTITLE8=Let It Rock
TTITLE9=Cumberland Blues
TTITLE10=El Paso
TTITLE11=To Lay Me Down
EXTD=SBD
EXTT0=
EXTT1=
EXTT2=
EXTT3=
EXTT4=
EXTT5=
EXTT6=
EXTT7=
EXTT8=
EXTT9=
EXTT10=
EXTT11=
PLAYORDER=
